<svg width="420" height="350" viewBox="0 0 420 350" fill="none" xmlns="http://www.w3.org/2000/svg">
<path d="M420 118.125C420 271.25 210 350 210 350C210 350 0 271.25 0 118.125C0 52.85 50.736 0 113.4 0C154.224 0 190.008 22.488 210 56.175C229.992 22.488 265.776 0 306.6 0C369.264 0 420 52.85 420 118.125Z" fill="#EC6608"/>
<path d="M420 118.12C420 271.25 210 350 210 350C210 350 125.81 318.43 64.04 256.39C271.66 317.7 347 195.4 347 104C347 33.24 296.63 11.69 272.55 5.43C283.3 1.9 294.74 0 306.6 0C369.26 0 420 52.85 420 118.12Z" fill="#F29350"/>
<path d="M129.04 28.2669C92.7795 24.6749 17.4235 29.1089 28.0105 130.698C28.4215 134.641 33.9215 135.239 35.1875 131.482C44.2165 104.68 68.9475 53.7289 129.776 35.4759C133.644 34.3149 133.059 28.6649 129.04 28.2669Z" fill="#FDE1CE"/>
<path d="M168.117 204.575C176.16 199.018 197.538 192.817 207.988 198.323C217.134 203.142 228.625 220.836 231.991 230.977C236.374 232.516 240.709 231.649 245.254 232.101C248.531 232.427 253.542 235.208 252.407 238.767C250.755 243.95 242.786 248.513 237.956 250.084C232.662 251.806 226.047 252.08 221.136 248.972C219.544 247.965 217.933 245.675 216.846 243.502C211.333 239.396 201.779 228.264 198.3 230.37C194.462 232.692 174.147 246.479 161.821 234.81C149.495 223.143 160.511 209.828 168.117 204.575Z" fill="#8DB6CF"/>
<mask id="mask0_97_7" style="mask-type:luminance" maskUnits="userSpaceOnUse" x="156" y="196" width="97" height="56">
<path d="M168.117 204.575C176.16 199.018 197.538 192.817 207.988 198.323C217.134 203.142 228.625 220.836 231.991 230.977C236.374 232.516 240.709 231.649 245.254 232.101C248.531 232.427 253.542 235.208 252.407 238.767C250.755 243.95 242.786 248.513 237.956 250.084C232.662 251.806 226.047 252.08 221.136 248.972C219.544 247.965 217.933 245.675 216.846 243.502C211.333 239.396 201.779 228.264 198.3 230.37C194.462 232.692 174.147 246.479 161.821 234.81C149.495 223.143 160.511 209.828 168.117 204.575Z" fill="white"/>
</mask>
<g mask="url(#mask0_97_7)">
<path d="M254.357 237.601C251.69 237.434 246.214 238.767 243.619 240.601C241.024 242.434 222.445 248.442 222.401 251.355" stroke="#70A1BA" stroke-miterlimit="10" stroke-linecap="round" stroke-linejoin="round"/>
</g>
<mask id="mask1_97_7" style="mask-type:luminance" maskUnits="userSpaceOnUse" x="156" y="196" width="97" height="56">
<path d="M168.117 204.575C176.16 199.018 197.538 192.817 207.988 198.323C217.134 203.142 228.625 220.836 231.991 230.977C236.374 232.516 240.709 231.649 245.254 232.101C248.531 232.427 253.542 235.208 252.407 238.767C250.755 243.95 242.786 248.513 237.956 250.084C232.662 251.806 226.047 252.08 221.136 248.972C219.544 247.965 217.933 245.675 216.846 243.502C211.333 239.396 201.779 228.264 198.3 230.37C194.462 232.692 174.147 246.479 161.821 234.81C149.495 223.143 160.511 209.828 168.117 204.575Z" fill="white"/>
</mask>
<g mask="url(#mask1_97_7)">
<path d="M232.563 245.359C231.357 242.767 222.019 239.921 218.336 230.267C215.857 223.768 205.275 207.746 196.982 209.923" stroke="#70A1BA" stroke-miterlimit="10" stroke-linecap="round" stroke-linejoin="round"/>
</g>
<path d="M170.865 174.666C176.293 182.359 218.177 192.174 222.869 190.039C227.562 187.903 227.152 179.295 223.155 175.712C219.158 172.128 189.795 157.086 178.045 156.593C166.297 156.1 163.8 164.651 170.865 174.666Z" fill="#8DB6CF"/>
<mask id="mask2_97_7" style="mask-type:luminance" maskUnits="userSpaceOnUse" x="166" y="156" width="61" height="35">
<path d="M170.865 174.666C176.293 182.359 218.177 192.174 222.869 190.039C227.562 187.903 227.152 179.295 223.155 175.712C219.158 172.128 189.795 157.086 178.045 156.593C166.297 156.1 163.8 164.651 170.865 174.666Z" fill="white"/>
</mask>
<g mask="url(#mask2_97_7)">
<path d="M222.401 193.976C218.179 193.976 214.757 189.389 214.757 183.73C214.757 178.072 218.179 173.484 222.401 173.484C226.623 173.484 230.045 178.072 230.045 183.73C230.045 189.389 226.623 193.976 222.401 193.976Z" fill="#70A1BA"/>
</g>
<path d="M221.961 177.617C224.296 177.003 225.513 178.966 228.59 176.348C230.883 174.396 234.429 171.642 236.987 173.44C239.262 175.041 230.977 177.693 234.807 179.475C236.339 180.187 241.668 180.931 243.42 184.293C245.173 187.653 234.733 184.153 234.644 185.747C234.556 187.339 242.181 190.161 241.626 192.65C241.071 195.138 233.513 190.688 233.264 192.269C233.015 193.849 236.611 197.312 234.546 198.91C232.481 200.509 224.754 189.825 220.934 188.396C215.688 186.429 219.627 178.23 221.961 177.617Z" fill="#FFE2C0"/>
<path d="M194.764 159.837C196.625 164.487 203.435 205.045 203.999 223.976C204.69 247.188 136.916 265.759 136.924 208.228C136.931 157.825 154.39 149.6 158.113 148.419C161.836 147.237 192.34 153.779 194.764 159.837Z" fill="#B4D6EA"/>
<mask id="mask3_97_7" style="mask-type:luminance" maskUnits="userSpaceOnUse" x="136" y="148" width="69" height="99">
<path d="M194.764 159.837C196.625 164.487 203.435 205.045 203.999 223.976C204.69 247.188 136.916 265.759 136.924 208.228C136.931 157.825 154.39 149.6 158.113 148.419C161.836 147.237 192.34 153.779 194.764 159.837Z" fill="white"/>
</mask>
<g mask="url(#mask3_97_7)">
<path d="M202.982 150.992C200.643 168.693 162.741 166.214 156.28 180.847C141.258 214.872 159.037 232.817 168.016 240.397C174.57 245.929 193.964 246.489 200.614 251.377C188.991 259.479 170.131 262.374 156.406 260.401C132.482 256.961 115.46 238.573 113.593 214.441C111.768 190.845 118.606 167.598 136.999 151.985C142.804 147.058 156.582 134.539 165.247 139.493L202.982 150.992Z" fill="#8DB6CF"/>
</g>
<mask id="mask4_97_7" style="mask-type:luminance" maskUnits="userSpaceOnUse" x="136" y="148" width="69" height="99">
<path d="M194.764 159.837C196.625 164.487 203.435 205.045 203.999 223.976C204.69 247.188 136.916 265.759 136.924 208.228C136.931 157.825 154.39 149.6 158.113 148.419C161.836 147.237 192.34 153.779 194.764 159.837Z" fill="white"/>
</mask>
<g mask="url(#mask4_97_7)">
<path opacity="0.6" d="M209.794 225.727C207.29 217.924 202.563 209.525 194.726 205.904C186.065 201.903 177.432 206.281 180.867 215.942C184.125 225.104 189.322 236.986 199.661 239.009C203.759 239.811 218.887 236.863 212.177 230.492L209.794 225.727Z" fill="#8DB6CF"/>
</g>
<mask id="mask5_97_7" style="mask-type:luminance" maskUnits="userSpaceOnUse" x="136" y="148" width="69" height="99">
<path d="M194.764 159.837C196.625 164.487 203.435 205.045 203.999 223.976C204.69 247.188 136.916 265.759 136.924 208.228C136.931 157.825 154.39 149.6 158.113 148.419C161.836 147.237 192.34 153.779 194.764 159.837Z" fill="white"/>
</mask>
<g mask="url(#mask5_97_7)">
<path d="M182.523 156.934C185.832 165.502 188.709 175.808 189.997 191.267C191.511 209.434 189.77 236.1 193.98 241.434" stroke="#70A1BA" stroke-width="6" stroke-miterlimit="10"/>
</g>
<path d="M183.823 88.0054C200.848 88.1854 211.405 106.357 212.958 120.031C214.513 133.704 219.295 159.253 189.737 163.931C160.177 168.609 150.599 161.412 145.133 139.462C139.667 117.512 139.425 87.5374 183.823 88.0054Z" fill="#FFE2C0"/>
<mask id="mask6_97_7" style="mask-type:luminance" maskUnits="userSpaceOnUse" x="142" y="88" width="73" height="78">
<path d="M183.823 88.0054C200.848 88.1854 211.405 106.357 212.958 120.031C214.513 133.704 219.295 159.253 189.737 163.931C160.177 168.609 150.599 161.412 145.133 139.462C139.667 117.512 139.425 87.5374 183.823 88.0054Z" fill="white"/>
</mask>
<g mask="url(#mask6_97_7)">
<path opacity="0.05" d="M188.056 165.291C174.041 164.137 155.936 160.737 150.361 137.059C144.785 113.381 154.582 92.4263 159.345 89.2963C164.108 86.1663 137.176 102.087 136.354 110.66C135.532 119.232 136.56 152.383 139.516 156.423C142.472 160.463 171.183 169.862 175.402 170.129C179.619 170.396 188.056 165.291 188.056 165.291Z" fill="black"/>
</g>
<mask id="mask7_97_7" style="mask-type:luminance" maskUnits="userSpaceOnUse" x="142" y="88" width="73" height="78">
<path d="M183.823 88.0054C200.848 88.1854 211.405 106.357 212.958 120.031C214.513 133.704 219.295 159.253 189.737 163.931C160.177 168.609 150.599 161.412 145.133 139.462C139.667 117.512 139.425 87.5374 183.823 88.0054Z" fill="white"/>
</mask>
<g mask="url(#mask7_97_7)">
<path opacity="0.2" d="M201.097 146.122C201.573 148.076 205.003 148.919 208.76 148.006C212.516 147.092 215.176 144.767 214.7 142.813C214.224 140.858 210.794 140.015 207.037 140.929C203.282 141.843 200.622 144.168 201.097 146.122Z" fill="#E494B4"/>
</g>
<path d="M150.771 135.202C141.429 130.122 131.917 136.132 138.945 147.077C145.973 158.022 153.381 148.425 154.397 147.808C155.412 147.191 150.771 135.202 150.771 135.202Z" fill="#FFE2C0"/>
<path d="M176.064 98.0805C183.179 95.0975 188.71 99.5205 189.737 106.358C190.763 113.195 178.504 115.024 180.579 120.463C182.038 124.289 185.712 123.635 188.085 122.191C188.791 127.089 177.883 134.066 172.988 123.63C168.094 113.194 167.482 101.68 176.064 98.0805Z" fill="#AA642B"/>
<mask id="mask8_97_7" style="mask-type:luminance" maskUnits="userSpaceOnUse" x="169" y="97" width="21" height="33">
<path d="M176.064 98.0805C183.179 95.0975 188.71 99.5205 189.737 106.358C190.763 113.195 178.504 115.024 180.579 120.463C182.038 124.289 185.712 123.635 188.085 122.191C188.791 127.089 177.883 134.066 172.988 123.63C168.094 113.194 167.482 101.68 176.064 98.0805Z" fill="white"/>
</mask>
<g mask="url(#mask8_97_7)">
<path opacity="0.2" d="M178.418 99.6838C181.326 99.1748 182.953 104.434 179.613 108.184C176.273 111.934 174.293 115.122 174.783 117.778C175.273 120.434 171.273 110.273 172.273 106.103C173.273 101.934 175.562 100.184 178.418 99.6838Z" fill="white"/>
</g>
<path d="M198.132 180.807C198.647 180.874 204.945 181.891 206.532 179.046C208.12 176.199 208.476 173.463 211.47 173.159C214.466 172.854 210.496 179.562 212.181 181.044C213.555 182.251 219.748 181.668 222.09 185.039C224.432 188.408 212.742 186.078 212.865 187.801C212.988 189.523 221.563 191.511 221.307 194.258C221.051 197.007 212.327 193.262 212.275 194.993C212.223 196.724 216.472 199.266 214.473 201.265C212.474 203.264 201.484 193.761 198.422 190.579C195.361 187.398 198.132 180.807 198.132 180.807Z" fill="#FFE2C0"/>
<path d="M155.527 159.654C164.629 162.064 198.948 174.277 198.948 179.433C198.948 183.388 201.78 192.234 196.429 192.663C191.077 193.092 155.807 186.692 146.163 179.964C136.519 173.235 141.86 156.037 155.527 159.654Z" fill="#B4D6EA"/>
<mask id="mask9_97_7" style="mask-type:luminance" maskUnits="userSpaceOnUse" x="141" y="159" width="59" height="34">
<path d="M155.527 159.654C164.629 162.064 198.948 174.277 198.948 179.433C198.948 183.388 201.78 192.234 196.429 192.663C191.077 193.092 155.807 186.692 146.163 179.964C136.519 173.235 141.86 156.037 155.527 159.654Z" fill="white"/>
</mask>
<g mask="url(#mask9_97_7)">
<path opacity="0.6" d="M204.047 188.841C190.627 188.841 179.411 184.744 166.942 180.068C157.877 176.668 146.908 173.604 139.3 167.519C130.573 185.071 157.11 195.895 171.019 198.472C182.293 200.561 195.923 198.516 204.047 191.223V188.841Z" fill="#8DB6CF"/>
</g>
<path d="M147.484 203.856C156.546 200.19 184.013 199.421 193.009 207.076C200.567 213.505 206.206 238.518 208.193 240.949C210.179 243.379 220.213 241.582 225.614 242.71C230.507 243.732 230.309 246.767 228.586 250.839C225.014 259.281 207.987 261.794 199.227 262.113C189.228 262.477 185.259 233.114 176.559 236.236C172.337 237.752 149.331 252.969 138.912 239.57C122.723 218.75 138.916 207.323 147.484 203.856Z" fill="#B4D6EA"/>
<mask id="mask10_97_7" style="mask-type:luminance" maskUnits="userSpaceOnUse" x="132" y="201" width="98" height="62">
<path d="M147.484 203.856C156.546 200.19 184.013 199.421 193.009 207.076C200.567 213.505 206.206 238.518 208.193 240.949C210.179 243.379 220.213 241.582 225.614 242.71C230.507 243.732 230.309 246.767 228.586 250.839C225.014 259.281 207.987 261.794 199.227 262.113C189.228 262.477 185.259 233.114 176.559 236.236C172.337 237.752 149.331 252.969 138.912 239.57C122.723 218.75 138.916 207.323 147.484 203.856Z" fill="white"/>
</mask>
<g mask="url(#mask10_97_7)">
<path opacity="0.6" d="M235.697 253.844C216.998 258.962 205.199 261.876 194.133 246.39C190.415 241.188 189.556 228.986 182.682 227.562C175.33 226.041 166.57 229.262 158.7 228.336C150.246 227.342 144.053 224.964 139.383 217.512C137.141 213.934 135.48 207.168 132.238 204.496C128.209 201.176 124.495 206.222 121.346 210.615C112.737 222.625 113.946 237.985 119.62 251.069C126.988 268.059 145.246 277.304 161.829 283.383C181.142 290.462 212.973 290.251 229.156 275.55C231.918 273.041 238.457 266.025 236.037 262.692L235.697 253.844Z" fill="#8DB6CF"/>
</g>
<mask id="mask11_97_7" style="mask-type:luminance" maskUnits="userSpaceOnUse" x="132" y="201" width="98" height="62">
<path d="M147.484 203.856C156.546 200.19 184.013 199.421 193.009 207.076C200.567 213.505 206.206 238.518 208.193 240.949C210.179 243.379 220.213 241.582 225.614 242.71C230.507 243.732 230.309 246.767 228.586 250.839C225.014 259.281 207.987 261.794 199.227 262.113C189.228 262.477 185.259 233.114 176.559 236.236C172.337 237.752 149.331 252.969 138.912 239.57C122.723 218.75 138.916 207.323 147.484 203.856Z" fill="white"/>
</mask>
<g mask="url(#mask11_97_7)">
<path d="M230.978 248.008C227.357 248.766 221.524 250.099 216.357 252.933C211.191 255.766 194.271 258.632 193.98 262.116" stroke="#70A1BA" stroke-miterlimit="10" stroke-linecap="round" stroke-linejoin="round"/>
</g>
<mask id="mask12_97_7" style="mask-type:luminance" maskUnits="userSpaceOnUse" x="132" y="201" width="98" height="62">
<path d="M147.484 203.856C156.546 200.19 184.013 199.421 193.009 207.076C200.567 213.505 206.206 238.518 208.193 240.949C210.179 243.379 220.213 241.582 225.614 242.71C230.507 243.732 230.309 246.767 228.586 250.839C225.014 259.281 207.987 261.794 199.227 262.113C189.228 262.477 185.259 233.114 176.559 236.236C172.337 237.752 149.331 252.969 138.912 239.57C122.723 218.75 138.916 207.323 147.484 203.856Z" fill="white"/>
</mask>
<g mask="url(#mask12_97_7)">
<path d="M135.523 236.267C140.69 230.767 169.747 210.733 181.968 218.916C194.189 227.1 199.023 254.6 205.189 256.433" stroke="#70A1BA" stroke-miterlimit="10" stroke-linecap="round" stroke-linejoin="round"/>
</g>
<path d="M250.5 187.017C250.5 202.402 262.971 214.873 278.355 214.873C293.74 214.873 306.211 202.402 306.211 187.017C306.211 171.633 293.74 159.162 278.355 159.162C262.971 159.161 250.5 171.632 250.5 187.017Z" fill="#FFBCD7"/>
<mask id="mask13_97_7" style="mask-type:luminance" maskUnits="userSpaceOnUse" x="250" y="159" width="57" height="56">
<path d="M250.5 187.017C250.5 202.402 262.971 214.873 278.355 214.873C293.74 214.873 306.211 202.402 306.211 187.017C306.211 171.633 293.74 159.162 278.355 159.162C262.971 159.161 250.5 171.632 250.5 187.017Z" fill="white"/>
</mask>
<g mask="url(#mask13_97_7)">
<path d="M270.162 193.946C270.162 193.946 268.435 156.345 290.897 150.236C313.359 144.128 313.699 162.096 309.615 168.257C305.531 174.418 284.822 192.714 270.162 193.946Z" fill="#E4A8D5"/>
</g>
<mask id="mask14_97_7" style="mask-type:luminance" maskUnits="userSpaceOnUse" x="250" y="159" width="57" height="56">
<path d="M250.5 187.017C250.5 202.402 262.971 214.873 278.355 214.873C293.74 214.873 306.211 202.402 306.211 187.017C306.211 171.633 293.74 159.162 278.355 159.162C262.971 159.161 250.5 171.632 250.5 187.017Z" fill="white"/>
</mask>
<g mask="url(#mask14_97_7)">
<path d="M304.17 208.111C296.204 208.399 270.162 193.946 270.162 193.946C270.162 193.946 262.99 206.749 274.561 219.681C286.132 232.615 304.17 208.111 304.17 208.111Z" fill="#E4A8D5"/>
</g>
<mask id="mask15_97_7" style="mask-type:luminance" maskUnits="userSpaceOnUse" x="250" y="159" width="57" height="56">
<path d="M250.5 187.017C250.5 202.402 262.971 214.873 278.355 214.873C293.74 214.873 306.211 202.402 306.211 187.017C306.211 171.633 293.74 159.162 278.355 159.162C262.971 159.161 250.5 171.632 250.5 187.017Z" fill="white"/>
</mask>
<g mask="url(#mask15_97_7)">
<path d="M270.162 193.945C266.393 192.114 252.705 177.07 252.572 168.256C252.44 159.442 240.529 192.004 245.973 197.334C251.419 202.664 270.162 193.945 270.162 193.945Z" fill="#E4A8D5"/>
</g>
<path d="M270.161 202.138C265.637 202.138 261.968 198.47 261.968 193.945C261.968 189.421 265.637 185.752 270.161 185.752C274.686 185.752 278.354 189.421 278.354 193.945C278.354 198.47 274.686 202.138 270.161 202.138Z" fill="#C982B7"/>
<path d="M189.042 142.229C190.611 143.711 193.53 142.567 193.911 143.885C194.244 145.036 193.393 147.372 191.222 147.808" stroke="#AA642B" stroke-width="1.5" stroke-miterlimit="10" stroke-linecap="round"/>
<path d="M184.784 152.704C184.472 158.15 188.052 158.97 191.024 158.434C195.189 157.684 195.465 153.462 195.126 151.901C194.749 150.168 184.936 150.046 184.784 152.704Z" fill="#4D4D4D"/>
<mask id="mask16_97_7" style="mask-type:luminance" maskUnits="userSpaceOnUse" x="184" y="150" width="12" height="9">
<path d="M184.784 152.704C184.472 158.15 188.052 158.97 191.024 158.434C195.189 157.684 195.465 153.462 195.126 151.901C194.749 150.168 184.936 150.046 184.784 152.704Z" fill="white"/>
</mask>
<g mask="url(#mask16_97_7)">
<path d="M181.808 156.444C180.796 158.66 182.638 161.674 185.923 163.174C189.208 164.675 192.692 164.094 193.704 161.878C194.717 159.661 192.874 156.648 189.589 155.148C186.304 153.647 182.82 154.228 181.808 156.444Z" fill="#E494B4"/>
</g>
<path d="M193.98 138.809C193.98 138.809 194.649 131.959 200.274 130.572C205.899 129.184 207.899 134.184 207.899 134.184C207.899 134.184 205.774 138.434 201.524 139.684C197.274 140.934 193.98 138.809 193.98 138.809Z" fill="white"/>
<mask id="mask17_97_7" style="mask-type:luminance" maskUnits="userSpaceOnUse" x="193" y="130" width="15" height="11">
<path d="M193.98 138.809C193.98 138.809 194.649 131.959 200.274 130.572C205.899 129.184 207.899 134.184 207.899 134.184C207.899 134.184 205.774 138.434 201.524 139.684C197.274 140.934 193.98 138.809 193.98 138.809Z" fill="white"/>
</mask>
<g mask="url(#mask17_97_7)">
<path d="M203.679 141.697C200.607 141.697 198.116 139.206 198.116 136.134C198.116 133.061 200.607 130.571 203.679 130.571C206.752 130.571 209.242 133.061 209.242 136.134C209.242 139.206 206.752 141.697 203.679 141.697Z" fill="#8DB6CF"/>
</g>
<mask id="mask18_97_7" style="mask-type:luminance" maskUnits="userSpaceOnUse" x="193" y="130" width="15" height="11">
<path d="M193.98 138.809C193.98 138.809 194.649 131.959 200.274 130.572C205.899 129.184 207.899 134.184 207.899 134.184C207.899 134.184 205.774 138.434 201.524 139.684C197.274 140.934 193.98 138.809 193.98 138.809Z" fill="white"/>
</mask>
<g mask="url(#mask18_97_7)">
<path d="M201.285 135.706C201.285 136.98 202.318 138.013 203.592 138.013C204.866 138.013 205.899 136.98 205.899 135.706C205.899 134.432 204.866 133.399 203.592 133.399C202.318 133.399 201.285 134.432 201.285 135.706Z" fill="#4D4D4D"/>
</g>
<mask id="mask19_97_7" style="mask-type:luminance" maskUnits="userSpaceOnUse" x="193" y="130" width="15" height="11">
<path d="M193.98 138.809C193.98 138.809 194.649 131.959 200.274 130.572C205.899 129.184 207.899 134.184 207.899 134.184C207.899 134.184 205.774 138.434 201.524 139.684C197.274 140.934 193.98 138.809 193.98 138.809Z" fill="white"/>
</mask>
<g mask="url(#mask19_97_7)">
<path d="M201.243 137.06C200.448 137.06 199.805 136.416 199.805 135.622C199.805 134.827 200.448 134.184 201.243 134.184C202.037 134.184 202.681 134.827 202.681 135.622C202.681 136.416 202.037 137.06 201.243 137.06Z" fill="white"/>
</g>
<path d="M179.753 141.019C179.753 141.019 176.758 134.822 171 135.465C165.242 136.107 164.106 141.645 164.106 141.645C164.106 141.645 168.557 144.744 172.977 144.448C177.397 144.152 179.753 141.019 179.753 141.019Z" fill="white"/>
<mask id="mask20_97_7" style="mask-type:luminance" maskUnits="userSpaceOnUse" x="164" y="135" width="16" height="10">
<path d="M179.753 141.019C179.753 141.019 176.758 134.822 171 135.465C165.242 136.107 164.106 141.645 164.106 141.645C164.106 141.645 168.557 144.744 172.977 144.448C177.397 144.152 179.753 141.019 179.753 141.019Z" fill="white"/>
</mask>
<g mask="url(#mask20_97_7)">
<path d="M179.562 139.768C180.624 142.651 179.147 145.849 176.265 146.91C173.382 147.972 170.185 146.496 169.123 143.613C168.061 140.73 169.537 137.532 172.42 136.47C175.302 135.41 178.5 136.885 179.562 139.768Z" fill="#8DB6CF"/>
</g>
<mask id="mask21_97_7" style="mask-type:luminance" maskUnits="userSpaceOnUse" x="164" y="135" width="16" height="10">
<path d="M179.753 141.019C179.753 141.019 176.758 134.822 171 135.465C165.242 136.107 164.106 141.645 164.106 141.645C164.106 141.645 168.557 144.744 172.977 144.448C177.397 144.152 179.753 141.019 179.753 141.019Z" fill="white"/>
</mask>
<g mask="url(#mask21_97_7)">
<path d="M172.833 141.406C173.031 142.665 174.211 143.525 175.47 143.327C176.729 143.129 177.589 141.949 177.391 140.69C177.193 139.431 176.012 138.571 174.754 138.769C173.495 138.967 172.635 140.147 172.833 141.406Z" fill="#4D4D4D"/>
</g>
<mask id="mask22_97_7" style="mask-type:luminance" maskUnits="userSpaceOnUse" x="164" y="135" width="16" height="10">
<path d="M179.753 141.019C179.753 141.019 176.758 134.822 171 135.465C165.242 136.107 164.106 141.645 164.106 141.645C164.106 141.645 168.557 144.744 172.977 144.448C177.397 144.152 179.753 141.019 179.753 141.019Z" fill="white"/>
</mask>
<g mask="url(#mask22_97_7)">
<path d="M174.038 140.393C174.312 141.139 173.931 141.964 173.186 142.239C172.441 142.513 171.615 142.132 171.34 141.387C171.066 140.641 171.447 139.816 172.192 139.541C172.937 139.267 173.763 139.649 174.038 140.393Z" fill="white"/>
</g>
<path d="M196.982 123.183C198.024 120.433 203.024 117.558 205.899 122.058" stroke="#AA642B" stroke-width="1.5" stroke-miterlimit="10" stroke-linecap="round"/>
<path d="M169.715 126.911C167.919 124.582 162.3 123.285 160.857 128.426" stroke="#AA642B" stroke-width="1.5" stroke-miterlimit="10" stroke-linecap="round"/>
<path d="M203.42 180.848C202.059 182.356 200.94 184.176 199.938 187.017C199.372 188.622 199.931 192.664 199.931 192.664C199.931 192.664 195.784 193.354 195.154 191.811C194.524 190.268 193.981 188.072 195.23 183.602C196.167 180.249 198.478 177.914 198.478 177.914L203.42 180.848Z" fill="#70A1BA"/>
<path d="M139.514 139.351C141.115 137.582 146.149 139.079 148.599 141.256C151.048 143.433 149.143 148.059 146.422 146.291C143.701 144.522 145.684 140.193 145.684 140.193" stroke="#AA642B" stroke-width="1.5" stroke-miterlimit="10" stroke-linecap="round"/>
<path opacity="0.2" d="M165.006 151.71C165.304 153.699 168.645 154.847 172.469 154.274C176.292 153.701 179.15 151.624 178.852 149.635C178.554 147.645 175.213 146.497 171.389 147.07C167.567 147.643 164.708 149.721 165.006 151.71Z" fill="#E494B4"/>
</svg>
