<svg width="420" height="350" viewBox="0 0 420 350" fill="none" xmlns="http://www.w3.org/2000/svg">
<path d="M420 118.125C420 271.25 210 350 210 350C210 350 0 271.25 0 118.125C0 52.85 50.736 0 113.4 0C154.224 0 190.008 22.488 210 56.175C229.992 22.488 265.776 0 306.6 0C369.264 0 420 52.85 420 118.125Z" fill="#EC6608"/>
<path d="M420 118.12C420 271.25 210 350 210 350C210 350 125.81 318.43 64.04 256.39C271.66 317.7 347 195.4 347 104C347 33.24 296.63 11.69 272.55 5.43C283.3 1.9 294.74 0 306.6 0C369.26 0 420 52.85 420 118.12Z" fill="#F29350"/>
<path d="M129.04 28.2669C92.7795 24.6749 17.4235 29.1089 28.0105 130.698C28.4215 134.641 33.9215 135.239 35.1875 131.482C44.2165 104.68 68.9475 53.7289 129.776 35.4759C133.644 34.3149 133.059 28.6649 129.04 28.2669Z" fill="#FDE1CE"/>
<path d="M128.95 197.219C125.813 198.776 126 203.109 118.824 201.481C116.905 201.045 108.655 202.605 116.439 204.665C118.29 205.155 108.553 205.715 108.433 208.376C108.388 209.344 112.999 208.786 111.997 210.17C111.291 211.145 106.34 211.886 105.578 212.882C102.913 216.367 110.188 215.94 112.811 215.224C115.699 214.436 121.467 210.022 124.058 212.393C125.675 213.872 124.791 219.145 128.307 218.672C131.247 218.277 130.559 214.128 130.725 212.393C131.194 207.5 137.421 205.016 136.393 199.804C136.258 199.118 136.337 198.878 135.831 198.625L128.95 197.219Z" fill="#FFE2C0"/>
<path d="M274.213 183.584C261.535 176.957 248.744 191.615 242.244 179.816C240.079 175.887 235.644 151.544 218.671 151.625C201.698 151.707 200.628 168.955 202.582 177.988C204.649 187.543 213.468 208.472 224.69 212.154C239.927 217.154 251.732 203.131 260.165 198.107C262.916 196.468 276.708 205.264 283.735 201.44C290.762 197.616 281.5 187.393 274.213 183.584Z" fill="#E494B4"/>
<path d="M165.238 160.435C166.157 169.805 140.87 204.608 135.924 206.057C130.974 207.508 125.658 200.724 126.342 195.4C127.025 190.075 139.418 159.5 147.992 151.448C156.561 143.397 164.037 148.238 165.238 160.435Z" fill="#C982B7"/>
<mask id="mask0_97_118" style="mask-type:luminance" maskUnits="userSpaceOnUse" x="126" y="147" width="40" height="60">
<path d="M165.238 160.435C166.157 169.805 140.87 204.608 135.924 206.057C130.974 207.508 125.658 200.724 126.342 195.4C127.025 190.075 139.418 159.5 147.992 151.448C156.561 143.397 164.037 148.238 165.238 160.435Z" fill="white"/>
</mask>
<g mask="url(#mask0_97_118)">
<path d="M126.283 187.37C127.031 192.597 127.524 195.977 131.761 199.64C135.998 203.303 139.6 204.339 139.6 204.339C139.6 204.339 137.605 209.927 133.016 208.982C128.427 208.037 123.584 201.07 123.67 197.22C123.756 193.369 126.283 187.37 126.283 187.37Z" fill="#FFD7E7"/>
</g>
<path d="M151.84 171.097C155.419 174.601 188.647 202.623 207.517 204.251C240.79 207.122 269.078 138.637 218.731 136.272C176.058 134.267 157.889 129.888 155.37 132.872C152.85 135.855 147.176 166.534 151.84 171.097Z" fill="#FFBCD7"/>
<mask id="mask1_97_118" style="mask-type:luminance" maskUnits="userSpaceOnUse" x="150" y="131" width="97" height="74">
<path d="M151.84 171.097C155.419 174.601 188.647 202.623 207.517 204.251C240.79 207.122 269.078 138.637 218.731 136.272C176.058 134.267 157.889 129.888 155.37 132.872C152.85 135.855 147.176 166.534 151.84 171.097Z" fill="white"/>
</mask>
<g mask="url(#mask1_97_118)">
<path opacity="0.6" d="M170.184 155.642C170.874 163.513 176.766 174.17 182.131 179.612C188.527 186.099 193.95 186.278 203.009 187.93C223.348 191.64 230.381 179.028 243.221 168.609C244.212 167.805 253.888 168.504 254.707 167.552C269.008 177.223 248.343 192.336 239.902 201.456C224.424 218.178 188.708 215.225 169.811 206.052C157.457 200.054 139.76 187.057 137.531 172.104C135.691 159.763 146.109 146.955 159.168 152.791C159.263 152.947 159.402 153.032 159.586 153.047L170.184 155.642Z" fill="#E494B4"/>
</g>
<mask id="mask2_97_118" style="mask-type:luminance" maskUnits="userSpaceOnUse" x="150" y="131" width="97" height="74">
<path d="M151.84 171.097C155.419 174.601 188.647 202.623 207.517 204.251C240.79 207.122 269.078 138.637 218.731 136.272C176.058 134.267 157.889 129.888 155.37 132.872C152.85 135.855 147.176 166.534 151.84 171.097Z" fill="white"/>
</mask>
<g mask="url(#mask2_97_118)">
<path d="M187.22 202.126C194.414 200.397 207.586 179.642 209.967 164.168C212.348 148.694 211.157 130.366 211.157 130.366L159.972 123.564L148.069 149.489L147.899 178.734L187.22 202.126Z" fill="#FFD7E7"/>
</g>
<mask id="mask3_97_118" style="mask-type:luminance" maskUnits="userSpaceOnUse" x="150" y="131" width="97" height="74">
<path d="M151.84 171.097C155.419 174.601 188.647 202.623 207.517 204.251C240.79 207.122 269.078 138.637 218.731 136.272C176.058 134.267 157.889 129.888 155.37 132.872C152.85 135.855 147.176 166.534 151.84 171.097Z" fill="white"/>
</mask>
<g mask="url(#mask3_97_118)">
<path d="M183.22 200.126C190.414 198.397 203.586 177.642 205.967 162.168C208.348 146.694 207.157 128.366 207.157 128.366L155.972 121.564L144.069 147.489L143.899 176.734L183.22 200.126Z" fill="#C982B7"/>
</g>
<path d="M177.591 208.797C177.715 209.259 179.408 214.904 176.993 216.703C174.577 218.501 172.118 219.158 172.199 221.937C172.283 224.718 177.946 220.272 179.507 221.634C180.78 222.746 180.995 228.489 184.364 230.225C187.732 231.962 184.185 221.539 185.778 221.442C187.37 221.348 190.227 228.959 192.712 228.393C195.199 227.826 190.715 220.288 192.292 220.032C193.871 219.776 196.713 223.358 198.304 221.285C199.892 219.213 189.859 210.299 186.576 207.88C183.292 205.461 177.591 208.797 177.591 208.797Z" fill="#FFE2C0"/>
<path d="M171.705 161.069C170.943 170.454 172.394 208.108 175.864 211.921C179.336 215.734 187.403 212.707 189.591 207.804C191.779 202.902 197.103 170.342 193.974 159.007C190.844 147.671 172.849 146.978 171.705 161.069Z" fill="#D6A5CD"/>
<mask id="mask4_97_118" style="mask-type:luminance" maskUnits="userSpaceOnUse" x="171" y="150" width="24" height="64">
<path d="M171.705 161.069C170.943 170.454 172.394 208.108 175.864 211.921C179.336 215.734 187.403 212.707 189.591 207.804C191.779 202.902 197.103 170.342 193.974 159.007C190.844 147.671 172.849 146.978 171.705 161.069Z" fill="white"/>
</mask>
<g mask="url(#mask4_97_118)">
<path opacity="0.5" d="M168.359 172.772C174.219 167.681 184.768 163.462 187.151 170.506C189.534 177.55 183.094 220.127 192.61 213.643C202.126 207.159 216.043 154.343 198.09 147.489C180.138 140.635 164.857 152.195 165.236 160.435C165.615 168.674 168.359 172.772 168.359 172.772Z" fill="#C982B7"/>
</g>
<mask id="mask5_97_118" style="mask-type:luminance" maskUnits="userSpaceOnUse" x="171" y="150" width="24" height="64">
<path d="M171.705 161.069C170.943 170.454 172.394 208.108 175.864 211.921C179.336 215.734 187.403 212.707 189.591 207.804C191.779 202.902 197.103 170.342 193.974 159.007C190.844 147.671 172.849 146.978 171.705 161.069Z" fill="white"/>
</mask>
<g mask="url(#mask5_97_118)">
<path d="M172.197 207.001C176.593 209.87 179.619 210.593 184.022 208.981C188.425 207.37 192.259 203.255 192.259 203.255C192.259 203.255 193.093 213.37 188.259 214.87C183.425 216.37 176.491 214.748 175.125 213.642C173.76 212.537 172.197 207.001 172.197 207.001Z" fill="#FFD7E7"/>
</g>
<path d="M144.068 93.2203C127.043 93.4003 116.485 111.572 114.932 125.245C113.376 138.919 108.594 164.467 138.153 169.145C167.713 173.822 177.29 166.626 182.756 144.676C188.222 122.726 188.465 92.7523 144.068 93.2203Z" fill="#FFE2C0"/>
<mask id="mask6_97_118" style="mask-type:luminance" maskUnits="userSpaceOnUse" x="113" y="93" width="73" height="78">
<path d="M144.068 93.2203C127.043 93.4003 116.485 111.572 114.932 125.245C113.376 138.919 108.594 164.467 138.153 169.145C167.713 173.822 177.29 166.626 182.756 144.676C188.222 122.726 188.465 92.7523 144.068 93.2203Z" fill="white"/>
</mask>
<g mask="url(#mask6_97_118)">
<path opacity="0.05" d="M140.562 172.729C154.578 171.575 172.683 168.175 178.258 144.497C183.834 120.819 174.037 99.864 169.275 96.734C164.512 93.605 191.444 109.525 192.266 118.098C193.087 126.67 192.06 159.821 189.104 163.861C186.148 167.901 157.435 177.3 153.217 177.567C148.999 177.834 140.562 172.729 140.562 172.729Z" fill="black"/>
</g>
<path d="M178.25 141.445C187.593 136.365 197.143 140.856 190.945 152.292C184.191 164.756 176.307 153.768 175.293 153.151C174.279 152.535 178.25 141.445 178.25 141.445Z" fill="#FFE2C0"/>
<path d="M145.852 157.374C147.625 160.25 141.868 162.765 138.568 162.042C135.268 161.319 131.19 156.775 133.9 154.759C135.837 153.318 136.08 156.674 139.433 156.914C142.787 157.154 144.361 154.958 145.852 157.374Z" fill="#4D4D4D"/>
<mask id="mask7_97_118" style="mask-type:luminance" maskUnits="userSpaceOnUse" x="133" y="154" width="14" height="9">
<path d="M145.852 157.374C147.625 160.25 141.868 162.765 138.568 162.042C135.268 161.319 131.19 156.775 133.9 154.759C135.837 153.318 136.08 156.674 139.433 156.914C142.787 157.154 144.361 154.958 145.852 157.374Z" fill="white"/>
</mask>
<g mask="url(#mask7_97_118)">
<path d="M147.342 163.987C147.342 166.8 144.049 169.079 139.985 169.079C135.921 169.079 132.629 166.8 132.629 163.987C132.629 161.175 135.922 158.896 139.985 158.896C144.049 158.896 147.342 161.175 147.342 163.987Z" fill="#E494B4"/>
</g>
<path d="M295.722 148.735C282.865 142.463 266.199 173.928 255.333 165.966C251.714 163.314 239.359 132.795 221.278 148.003C208.291 158.928 213.014 173.649 218.593 181.018C224.492 188.812 242.856 201.393 254.503 199.435C264.269 197.792 279.769 185.608 286.657 177.045C286.658 177.044 286.66 177.044 286.661 177.043C287.834 175.644 292.626 171.177 295.007 169.034C297.387 166.891 308.339 177.129 313.101 170.701C317.864 164.273 303.054 152.313 295.722 148.735Z" fill="#FFBCD7"/>
<mask id="mask8_97_118" style="mask-type:luminance" maskUnits="userSpaceOnUse" x="212" y="143" width="103" height="57">
<path d="M295.722 148.735C282.865 142.463 266.199 173.928 255.333 165.966C251.714 163.314 239.359 132.795 221.278 148.003C208.291 158.928 213.014 173.649 218.593 181.018C224.492 188.812 242.856 201.393 254.503 199.435C264.269 197.792 279.769 185.608 286.657 177.045C286.658 177.044 286.66 177.044 286.661 177.043C287.834 175.644 292.626 171.177 295.007 169.034C297.387 166.891 308.339 177.129 313.101 170.701C317.864 164.273 303.054 152.313 295.722 148.735Z" fill="white"/>
</mask>
<g mask="url(#mask8_97_118)">
<path opacity="0.6" d="M207.24 160.613C211.581 151.734 226.447 154.117 233.087 157.816C240.981 162.214 246.272 170.223 255.228 172.618C266.706 175.687 271.94 170.22 279.465 163.337C285.429 157.883 291.457 158.517 299.119 160.273C303.912 161.371 309.899 167.33 313.346 163.344C323.831 151.214 300.291 134.765 291.241 133.031C280.937 131.058 273.522 135.178 263.658 136.382C254.267 137.527 244.93 135.812 235.57 135.504C228.496 135.271 219.083 134.126 214.022 140.093C211.75 142.772 209.177 150.059 210.302 152.445L207.24 160.613Z" fill="#E494B4"/>
</g>
<path d="M164.341 86.9141C170.175 74.3241 155.169 69.8771 151.461 78.3621C147.751 86.8481 151.277 96.3541 142.564 100.034C132.748 104.18 144.968 114.122 155.408 110.653C166.24 107.053 152.011 101.82 153.793 92.3491C154.934 86.2901 157.324 78.4991 164.341 86.9141Z" fill="#AA642B"/>
<mask id="mask9_97_118" style="mask-type:luminance" maskUnits="userSpaceOnUse" x="138" y="74" width="28" height="38">
<path d="M164.341 86.9141C170.175 74.3241 155.169 69.8771 151.461 78.3621C147.751 86.8481 151.277 96.3541 142.564 100.034C132.748 104.18 144.968 114.122 155.408 110.653C166.24 107.053 152.011 101.82 153.793 92.3491C154.934 86.2901 157.324 78.4991 164.341 86.9141Z" fill="white"/>
</mask>
<g mask="url(#mask9_97_118)">
<path opacity="0.2" d="M138.957 100.988C142.992 109.296 155.171 108.66 152.913 104.489C149.319 97.851 152.36 80.75 155.761 78.88C159.161 77.01 166.982 79.434 168.035 84.834C169.089 90.234 170.187 70.89 157.554 71.23C144.92 71.57 138.957 100.988 138.957 100.988Z" fill="white"/>
</g>
<path d="M166.488 89.4509C161.724 90.8889 155.642 92.1899 155.642 92.1899C155.642 92.1899 155.801 90.0049 153.041 89.2329C150.283 88.4619 149.138 90.3709 149.138 90.3709C149.138 90.3709 144.616 86.1039 141.287 82.4039C136.269 76.8209 127.149 100.18 137.04 97.5909C145.718 95.3199 148.483 94.4329 148.483 94.4329C148.483 94.4329 149.486 95.8279 151.111 96.2809C152.736 96.7359 154.095 96.0019 154.095 96.0019C154.095 96.0019 155.998 98.1949 162.24 104.638C169.355 111.983 173.675 87.2819 166.488 89.4509Z" fill="#C982B7"/>
<path d="M141.456 146.066C139.887 147.548 136.968 146.404 136.587 147.722C136.254 148.873 137.105 151.209 139.277 151.645" stroke="#AA642B" stroke-width="1.5" stroke-miterlimit="10" stroke-linecap="round"/>
<path d="M132.65 127.626C131.374 124.977 126.142 122.548 123.671 127.281" stroke="#AA642B" stroke-width="1.5" stroke-miterlimit="10" stroke-linecap="round"/>
<path d="M158.06 132.398C160.448 130.681 166.205 131.047 166.114 136.386" stroke="#AA642B" stroke-width="1.5" stroke-miterlimit="10" stroke-linecap="round"/>
<path d="M189.984 145.189C188.383 143.42 183.349 144.917 180.9 147.094C178.451 149.271 180.355 153.897 183.077 152.129C185.799 150.361 183.815 146.031 183.815 146.031" stroke="#AA642B" stroke-width="1.5" stroke-miterlimit="10" stroke-linecap="round"/>
<path d="M119.157 134.158C119.699 135.52 120.966 137.681 122.229 138.112C123.494 138.543 121.287 133.792 121.387 132.888" stroke="#AA642B" stroke-width="1.6212" stroke-miterlimit="10" stroke-linecap="round"/>
<path d="M167.846 145.629C166.484 146.172 164.044 146.738 162.863 146.117C161.679 145.496 166.647 143.831 167.234 143.137" stroke="#AA642B" stroke-width="1.6212" stroke-miterlimit="10" stroke-linecap="round"/>
<path d="M136.24 142.418C136.24 142.418 134.555 135.172 128.332 134.482C122.108 133.791 120.672 139.431 120.672 139.431C120.672 139.431 123.55 143.685 128.28 144.423C133.012 145.16 136.24 142.418 136.24 142.418Z" fill="white"/>
<mask id="mask10_97_118" style="mask-type:luminance" maskUnits="userSpaceOnUse" x="120" y="134" width="17" height="11">
<path d="M136.24 142.418C136.24 142.418 134.555 135.172 128.332 134.482C122.108 133.791 120.672 139.431 120.672 139.431C120.672 139.431 123.55 143.685 128.28 144.423C133.012 145.16 136.24 142.418 136.24 142.418Z" fill="white"/>
</mask>
<g mask="url(#mask10_97_118)">
<path d="M131.339 137.977C131.774 141.269 129.457 144.289 126.166 144.724C122.873 145.158 119.852 142.842 119.419 139.55C118.984 136.258 121.3 133.238 124.593 132.803C127.884 132.368 130.904 134.684 131.339 137.977Z" fill="#A67C52"/>
</g>
<mask id="mask11_97_118" style="mask-type:luminance" maskUnits="userSpaceOnUse" x="120" y="134" width="17" height="11">
<path d="M136.24 142.418C136.24 142.418 134.555 135.172 128.332 134.482C122.108 133.791 120.672 139.431 120.672 139.431C120.672 139.431 123.55 143.685 128.28 144.423C133.012 145.16 136.24 142.418 136.24 142.418Z" fill="white"/>
</mask>
<g mask="url(#mask11_97_118)">
<path d="M127.884 137.967C128.066 139.332 127.104 140.585 125.738 140.765C124.374 140.946 123.12 139.985 122.94 138.619C122.76 137.254 123.721 136 125.085 135.821C126.452 135.641 127.704 136.602 127.884 137.967Z" fill="#4D4D4D"/>
</g>
<mask id="mask12_97_118" style="mask-type:luminance" maskUnits="userSpaceOnUse" x="120" y="134" width="17" height="11">
<path d="M136.24 142.418C136.24 142.418 134.555 135.172 128.332 134.482C122.108 133.791 120.672 139.431 120.672 139.431C120.672 139.431 123.55 143.685 128.28 144.423C133.012 145.16 136.24 142.418 136.24 142.418Z" fill="white"/>
</mask>
<g mask="url(#mask12_97_118)">
<path d="M129.459 137.666C129.57 138.517 128.971 139.297 128.122 139.41C127.27 139.522 126.49 138.924 126.378 138.073C126.266 137.221 126.863 136.442 127.715 136.329C128.566 136.216 129.346 136.815 129.459 137.666Z" fill="white"/>
</g>
<path d="M148.053 144.702C148.053 144.702 152.063 138.418 158.174 139.842C164.286 141.264 164.806 147.368 164.806 147.368C164.806 147.368 159.622 150.134 154.904 149.253C150.188 148.372 148.053 144.702 148.053 144.702Z" fill="white"/>
<mask id="mask13_97_118" style="mask-type:luminance" maskUnits="userSpaceOnUse" x="148" y="139" width="17" height="11">
<path d="M148.053 144.702C148.053 144.702 152.063 138.418 158.174 139.842C164.286 141.264 164.806 147.368 164.806 147.368C164.806 147.368 159.622 150.134 154.904 149.253C150.188 148.372 148.053 144.702 148.053 144.702Z" fill="white"/>
</mask>
<g mask="url(#mask13_97_118)">
<path d="M148.649 141.228C147.14 144.194 148.32 147.822 151.288 149.331C154.255 150.84 157.881 149.659 159.391 146.693C160.9 143.726 159.719 140.099 156.753 138.59C153.786 137.082 150.159 138.262 148.649 141.228Z" fill="#A67C52"/>
</g>
<mask id="mask14_97_118" style="mask-type:luminance" maskUnits="userSpaceOnUse" x="148" y="139" width="17" height="11">
<path d="M148.053 144.702C148.053 144.702 152.063 138.418 158.174 139.842C164.286 141.264 164.806 147.368 164.806 147.368C164.806 147.368 159.622 150.134 154.904 149.253C150.188 148.372 148.053 144.702 148.053 144.702Z" fill="white"/>
</mask>
<g mask="url(#mask14_97_118)">
<path d="M155.957 144.148C155.584 145.477 154.205 146.253 152.874 145.879C151.547 145.506 150.772 144.126 151.144 142.798C151.518 141.469 152.898 140.694 154.225 141.068C155.556 141.44 156.33 142.819 155.957 144.148Z" fill="#4D4D4D"/>
</g>
<mask id="mask15_97_118" style="mask-type:luminance" maskUnits="userSpaceOnUse" x="148" y="139" width="17" height="11">
<path d="M148.053 144.702C148.053 144.702 152.063 138.418 158.174 139.842C164.286 141.264 164.806 147.368 164.806 147.368C164.806 147.368 159.622 150.134 154.904 149.253C150.188 148.372 148.053 144.702 148.053 144.702Z" fill="white"/>
</mask>
<g mask="url(#mask15_97_118)">
<path d="M154.789 142.907C154.398 143.673 154.703 144.61 155.471 145.001C156.237 145.391 157.175 145.085 157.565 144.319C157.955 143.553 157.65 142.615 156.883 142.226C156.116 141.835 155.179 142.14 154.789 142.907Z" fill="white"/>
</g>
<path d="M147.642 92.1462C148.406 90.3522 139.965 85.1742 138.957 86.3642C137.949 87.5542 143.05 89.4262 142.54 91.1262C142.03 92.8262 136.758 93.1902 137.438 94.4542C138.118 95.7182 146.878 93.9412 147.642 92.1462Z" fill="#FFBCD7"/>
<path d="M156.942 94.0102C155.692 95.5072 162.278 102.902 163.587 102.053C164.896 101.204 160.553 97.9402 161.531 96.4592C162.51 94.9792 167.664 96.1522 167.377 94.7472C167.089 93.3412 158.191 92.5122 156.942 94.0102Z" fill="#FFBCD7"/>
<path opacity="0.2" d="M129.395 150.363C128.919 152.317 125.489 153.16 121.732 152.247C117.976 151.333 115.316 149.008 115.791 147.054C116.267 145.099 119.697 144.256 123.454 145.17C127.21 146.083 129.87 148.408 129.395 150.363Z" fill="#E494B4"/>
<path opacity="0.2" d="M164.997 156.205C164.726 158.198 161.402 159.393 157.571 158.875C153.74 158.356 150.852 156.321 151.122 154.328C151.393 152.335 154.717 151.139 158.548 151.657C162.379 152.175 165.267 154.211 164.997 156.205Z" fill="#E494B4"/>
</svg>
