<svg width="1024" height="1024" viewBox="0 0 1024 1024" fill="none" xmlns="http://www.w3.org/2000/svg">
<path d="M359.962 112.603C368.895 111.388 392.194 112.107 401.445 113.882C438.387 120.972 471.298 142.067 495.371 174.082C504.755 186.561 508.588 194.088 507.772 198.437C506.921 202.976 502.153 207.049 496.743 207.86L492.584 208.484L493.285 213.164C493.671 215.739 493.929 224 493.858 231.521C493.75 242.957 493.35 246.647 491.413 254.047C489.133 262.762 484.703 272.9 478.618 283.334C473.052 292.877 472.293 302.497 475.299 325.366C477.688 343.541 476.769 348.94 470.523 353.394C467.883 355.277 466.515 355.518 458.429 355.518H449.312L446.12 361.551C442.122 369.11 441.079 370.343 437.084 372.231C434.414 373.493 433.735 374.414 433.1 377.632C432.442 380.967 431.466 382.205 426.134 386.46C420.217 391.181 419.903 391.629 419.296 396.199C417.95 406.344 411.575 415.049 402.469 419.175C399.285 420.617 396.359 421.094 390.505 421.123C380.567 421.173 370.555 418.014 357.494 410.708C351.451 407.327 347.739 405.747 347.069 406.271C345.212 407.728 338.537 421.908 336.626 428.456C334.224 436.689 333.339 452.405 334.848 460.074C336.731 469.645 340.777 480.472 351.267 504.014C370.009 546.077 377.989 571.602 379.949 595.76L380.505 602.598L376.958 593.024C357.107 539.438 315.622 475.881 272.517 433.014C251.333 411.947 233.339 400.064 212.716 393.519C198.895 389.132 200.109 389.012 194.926 395.282C177.26 416.651 166.674 438.607 162.446 462.646C160.293 474.894 159.901 496.639 161.601 509.601C167.925 557.839 197.874 613.147 243.231 660.355C297.89 717.247 332.487 745.28 464.181 839.38L513.695 874.761L534.489 860.231C545.925 852.24 576.57 831.566 602.588 814.289C690.704 755.777 722.635 731.407 759.836 694.273C792.435 661.735 814.712 633.043 832.565 600.604C860.366 550.093 867.616 498.168 850.768 470.236C844.109 459.198 835.591 454.471 821.03 453.735C802.921 452.82 788.622 458.444 769.331 474.068C759.044 482.4 752.315 488.962 732.896 509.601C710.036 533.897 701.302 541.736 684.995 552.597C678.004 557.253 661.808 566.583 660.716 566.584C660.383 566.584 663.765 562.788 668.231 558.15C672.697 553.512 682.945 542.332 691.005 533.306C699.065 524.28 714.721 507.203 725.796 495.358C764.994 453.433 781.225 442.332 808.304 438.924C813.159 438.313 818.376 437.995 819.898 438.219C821.422 438.442 822.65 438.389 822.629 438.1C822.607 437.811 814.335 431.624 804.246 424.354C777.695 405.219 761.053 388.69 749.847 370.319C740.267 354.616 733.213 337.877 727.853 318.136L724.634 306.283L713.407 300.623C706.123 296.951 697.367 293.514 684.162 289.164C669.557 281.725 655.651 273.233 642.492 263.755C624.984 250.901 607.989 236.809 595.434 218.681C594.086 216.626 592.836 214.501 591.795 212.291C592.377 214.665 593.226 217.029 594.213 219.336C603.602 239.928 620.137 256.436 638.226 269.671C642.355 272.65 646.617 275.443 650.989 278.048C646.175 276.243 642.562 274.674 638.041 272.576C607.788 258.536 581.448 233.314 566.798 204.357C565.364 201.523 563.975 199.193 563.71 199.18C563.127 199.15 558.692 215.401 556.875 224.228C556.152 227.738 555.553 235.365 555.544 241.177C555.52 257.37 558.908 268.289 568.213 282.013C573.566 289.908 576.347 296 577.267 301.851C578.312 308.503 577.226 322.452 574.729 334.42C573.696 339.364 572.852 345.196 572.852 347.38C572.852 353.524 574.416 353.98 588.018 351.806C593.013 351.007 595.004 353.011 596.434 360.278C597.133 363.828 598.344 366.68 599.838 368.293C601.986 370.611 602.525 370.753 607.088 370.217L612.016 369.639L611.145 371.93C610.665 373.19 609.649 375.428 608.886 376.904C606.78 380.978 607.137 382.143 610.695 382.811C614.653 383.554 620.8 389.212 621.676 392.919C622.803 397.688 626.869 404.287 629.765 406.043C636.024 409.84 642.208 409.205 653.54 403.6C671.868 394.533 690.492 377.74 702.312 359.62L706.18 353.693L705.562 359.472C704.485 369.562 699.783 382.11 693.554 391.523L691.364 394.83L694.04 399.791C701.019 412.731 704.105 424.168 704.126 437.174C704.145 449.327 701.989 458.062 695.924 470.396C686.927 488.691 673.808 504.054 647.676 526.896C630.208 542.166 622.136 550.207 615.633 558.821L611.87 563.805L613.331 568.092C618.211 582.412 611.571 601.26 595.803 617.854L592.568 621.26L594.213 626.517C595.118 629.408 598.318 637.313 601.324 644.082C610.353 664.413 612.975 673.826 612.961 685.874C612.949 696.539 609.566 712.017 606.005 717.704C605.179 719.022 605.078 719.756 605.722 719.756C607.409 719.756 626.713 710.268 633.482 706.112C660.069 689.79 684.996 663.334 706.1 629.038C716.431 612.249 747.754 555.751 750.023 549.814C750.385 548.866 750.868 548.274 751.094 548.5C751.719 549.125 744.766 575.069 741.482 584.363C712.393 666.681 664.964 717.747 597.207 739.701C532.049 760.813 453.946 747.88 393.812 706.021C382.757 698.326 362.505 677.994 355.274 667.331C349.551 658.889 345.012 650.465 341.03 640.891C336.932 631.035 337.242 630.906 344.8 639.336C357.571 653.58 380.552 674.377 392.442 682.452C397.674 686.004 398.021 686.116 397.524 684.092C394.624 672.263 394.532 647.955 397.316 628.761C401.21 601.924 409.963 574.078 422.135 549.815C427.004 540.106 429.905 535.644 437.007 526.924C444.437 517.8 445.48 515.439 445.02 508.774C444.739 504.707 443.374 500.263 439.929 492.189C434.059 478.43 432.558 472.255 431.865 458.999C430.42 431.382 440.909 408.023 461.867 392.184C470.944 385.324 475.316 382.97 485.019 379.727C504.579 373.186 525.778 374.6 545.156 383.736C576.305 398.423 594.817 424.796 594.785 454.44C594.77 469.393 592.553 476.255 583.521 489.308C575.495 500.907 575.068 502.422 577.506 510.636C579.797 518.355 579.382 522.423 575.954 525.852C574.676 527.13 572.473 528.429 571.058 528.74C568.835 529.228 568.402 529.859 567.875 533.374C567.171 538.068 564.765 541.215 559.706 544.061C557.658 545.213 555.276 547.625 554.124 549.717C551.702 554.113 545.789 558.871 541.146 560.16C536.914 561.336 525.958 561.396 522.016 560.266C520.39 559.799 519.06 559.611 519.06 559.847C519.06 560.083 519.956 562.003 521.051 564.113C522.146 566.224 525.402 573.901 528.287 581.172L533.533 594.392L537.083 594.234C541.004 594.061 554.423 589.188 558.737 586.372C560.251 585.383 564.354 580.894 567.854 576.394C578.137 563.175 583.956 559.014 594.028 557.679L599.064 557.011L605.857 547.894C615.323 535.189 620.368 529.911 636.148 516.207C660.677 494.903 671.523 482.572 679.759 466.627C685.011 456.457 686.818 449.808 686.818 440.654C686.818 429.63 682.569 418.386 676.069 412.207L673.362 409.635L666.187 413.228C636.631 428.024 617.824 424.864 612.496 404.205C610.764 397.489 609.688 396.032 604.856 393.853C601.178 392.194 597.469 386.959 597.469 383.429C597.469 382.369 596.908 381.502 596.224 381.502C593.207 381.502 590.19 377.647 588.339 371.43L586.453 365.099L578.057 365.322C568.112 365.588 564.59 364.084 561.584 358.29C559.447 354.171 559.204 347.267 560.493 327.221C561.4 313.105 560.697 310.77 552.717 301.394C536.454 282.286 530.912 269.044 530.912 249.3C530.912 224.944 541.168 205.765 570.089 176.042C586.436 159.241 599.864 149.171 617.982 140.126C651.62 123.333 691.286 120.234 722.447 131.964C758.154 145.405 783.565 173.738 800.29 218.757C802.153 223.771 807.508 241.209 812.19 257.506C825.856 305.065 833.918 326.543 849.282 356.334C873.99 404.239 880.532 419.34 886.439 442.089C890.807 458.912 893.343 475.195 894 491.301C879.519 458.23 851.95 432.298 824.278 411.617C817.374 406.374 810.36 401.302 803.289 396.322C776.387 376.849 747.961 354.821 738.154 321.797C736.824 317.293 735.858 312.647 734.938 308.023C735.619 312.687 736.343 317.382 737.445 321.985C745.594 355.909 773.476 380.129 799.699 401.159C806.472 406.456 813.172 411.823 819.729 417.319C852.104 444.046 881.67 476.369 888.798 517.057C889.694 521.517 890.381 525.965 890.909 530.519C891.039 531.635 891.169 532.751 891.299 533.867C887.045 559.15 878.039 584.782 864.094 612.171C827.664 683.717 761.63 750.669 661.29 817.795C631.551 837.69 515.406 912.123 514.088 912.132C513.463 912.132 480.379 891.391 463.899 880.667C371.384 820.468 324.718 786.047 270.611 738.1C254.699 723.998 217.953 687.155 206.85 674.169C177.204 639.496 157.883 609.047 144.949 576.613C134.121 549.459 128.068 510.695 130.556 484.431C133.649 451.766 144.6 424.61 164.707 399.736C167.748 395.975 180.949 382.231 194.043 369.193C244.766 318.69 254.044 301.075 256.002 251.579C257.061 224.806 259.412 208.193 264.359 192.532C278.165 148.83 314.022 118.852 359.962 112.603ZM524.529 392.026C517.243 390.33 503.295 390.333 495.354 392.033C492.095 392.732 485.553 395.218 480.816 397.56C473.74 401.058 470.8 403.214 464.314 409.665C455.739 418.195 451.28 425.231 447.785 435.75C445.952 441.269 445.667 443.921 445.683 455.353C445.704 470.645 446.57 474.354 453.446 488.631C458.867 499.885 460.168 504.887 459.58 512.214C458.972 519.791 456.46 525.153 450.466 531.675C441.334 541.607 434.243 553.581 427.572 570.331C413.155 606.529 407.079 649.069 412.871 673.243C417.562 692.816 431.695 707.452 455.754 717.648C470.452 723.877 480.998 726.311 493.531 726.366C505.074 726.416 512.488 724.915 520.362 720.928C525.122 718.518 535.445 711.625 540.759 707.308L543.769 704.863L541.029 712.368C539.523 716.495 537.017 721.943 535.461 724.472C533.904 727.001 532.893 729.334 533.214 729.656C534.04 730.483 556.793 731.004 560.633 730.284C563.228 729.796 564.415 728.755 567.027 724.672C580.435 703.712 577.35 677.132 560.354 667.171C546.187 658.87 524.125 661.048 493.986 673.722C482.49 678.557 472.265 682.383 471.878 681.995C471.266 681.382 483.554 670.992 489.797 666.847C493.218 664.575 499.136 661.292 502.948 659.553C506.76 657.813 509.894 656.127 509.911 655.805C509.928 655.484 509.018 654.987 507.891 654.702C504.284 653.79 492.827 645.641 486.555 639.523C479.443 632.588 470.992 620.037 467.039 610.539C463.56 602.183 460.701 591.18 460.731 586.269C460.754 582.66 460.938 582.892 466.455 593.48C473.706 607.399 478.452 614.336 486.573 622.886C502.026 639.153 519.626 647.058 533.731 644.063C544.341 641.812 560.282 632.631 577.866 618.646C596.967 603.453 606.376 587.725 603.034 576.571C601.064 569.995 595.6 567.792 588.55 570.733C584.176 572.558 580.259 576.339 573.959 584.818C567.493 593.52 564.601 596.207 558.253 599.412C550.938 603.105 534.926 608.524 531.33 608.524C526.112 608.524 524.224 605.784 517.192 588.01C513.622 578.984 508.201 566.47 505.145 560.202C500.126 549.907 498.819 548.034 491.62 540.827C487.242 536.445 483.765 532.858 483.889 532.85C485.719 532.85 496.736 537.586 504.126 541.55C509.327 544.34 515.906 547.421 518.744 548.397C525.646 550.772 535.264 550.78 539.899 548.415C543.641 546.507 548.69 541.228 551.155 536.647C552.364 534.403 553.31 533.762 555.421 533.762C559.389 533.762 561.131 531.674 559.961 528.319C558.444 523.967 559.221 522.553 563.739 521.446L567.837 520.441L567.604 515.933C567.477 513.453 567.272 508.142 567.148 504.13C566.902 496.083 567.013 495.81 575.674 482.982C581.606 474.195 583.049 469.971 583.554 459.911C584.055 449.912 582.58 442.844 578.149 433.999C567.571 412.89 547.857 397.458 524.529 392.026ZM580.076 633.153C579.788 633.146 578.593 634.162 577.421 635.409C575.036 637.948 561.905 646.958 558.036 648.71C554.623 650.255 554.871 650.892 559.403 652.23C579.505 658.166 591.67 677.677 589.838 701.05C589.522 705.069 588.824 709.936 588.285 711.863C587.747 713.79 587.494 715.556 587.725 715.786C588.323 716.384 592.363 708.924 595.331 701.739C597.641 696.147 597.864 694.612 597.813 684.654C597.766 675.473 597.387 672.613 595.459 666.875C593.015 659.601 580.96 633.174 580.076 633.153ZM486.692 461.79C494.06 459.627 501.592 462.324 503.844 467.931C504.59 469.788 505.098 471.417 504.974 471.55C504.846 471.68 502.811 470.706 500.446 469.386C490.331 463.732 480.216 470.678 480.388 483.16C480.504 491.59 484.092 497.535 490.753 500.336L493.847 501.637L490.953 502.272C486.458 503.26 482.72 501.981 478.887 498.147C472.481 491.742 470.894 480.392 475.22 471.914C477.365 467.707 482.765 462.943 486.692 461.79ZM423.246 179.097C422.789 179.097 422.408 181.456 422.399 184.339C422.376 192.194 420.103 201.579 416.492 208.728C407.5 226.534 383.893 244.964 362.749 250.688C353.619 253.159 352.881 252.56 350.98 241.119C348.705 227.413 344.437 220.291 336.514 216.981C328.483 213.627 319.856 216.057 312.725 223.681C307.414 229.359 305.283 233.654 302.396 244.502C298.12 260.564 300.328 273.38 309.442 285.422C314.332 291.882 314.074 292.86 307.746 291.833C301.818 290.871 296.74 285.567 294.601 278.103C294.013 276.051 293.451 274.252 293.354 274.105C292.719 273.166 273.456 295.058 259.347 312.754C230.271 349.222 209.83 375.261 210.112 375.472C210.292 375.606 213.104 376.64 216.363 377.771C219.623 378.903 227.623 382.457 234.142 385.667C261.696 399.235 282.344 418.467 314.832 460.823C318.894 466.118 321.268 468.598 320.942 467.205C320.649 465.951 319.916 460.508 319.315 455.108C317.297 436.958 320.7 420.005 329.326 405.247L333.832 397.536L331.291 394.307C324.465 385.626 318.994 371.834 317.742 360.15C317.336 356.349 317.072 353.239 317.158 353.238C317.245 353.238 319.501 356.212 322.172 359.848C336.959 379.973 362.439 400.511 379.486 406.044C386.452 408.304 391.181 408.446 395.764 406.53C402.333 403.786 405.255 399.621 408.668 388.136C410.553 381.793 410.845 381.393 416.523 377.34C422.927 372.77 424.117 370.493 422.51 365.882C421.957 364.296 421.505 362.854 421.504 362.676C421.504 362.5 423.378 362.355 425.667 362.355C432.714 362.355 435.331 360.156 437.055 352.782C438.425 346.92 439.973 344.518 443.584 342.65C446.305 341.244 446.949 341.248 453.179 342.717C459.469 344.199 459.995 344.2 462.224 342.739C464.851 341.018 464.852 341.001 462.502 322.821C461.928 318.378 461.596 308.71 461.767 301.335C462.076 287.934 462.077 287.921 465.391 281.604C481.007 251.835 481.89 248.985 482.035 227.874C482.165 208.952 481.732 206.902 477.317 205.471C472.792 204.004 461.679 198.406 449.018 191.218C439.477 185.802 425.221 179.097 423.246 179.097ZM352.725 136.331C332.667 136.271 313.112 147.908 300.605 163.648C287.867 179.42 280.253 198.61 277.456 218.092C277.158 220.262 276.923 222.47 276.79 224.599C277.518 222.595 278.311 220.541 279.13 218.54C286.614 200.626 295.985 183.896 307.675 169.407C319.359 155.005 334.145 143.019 352.958 138.048C355.071 137.486 357.116 137.014 359.303 136.616C357.09 136.407 354.966 136.304 352.725 136.331Z" fill="#ec6608"/>
</svg>
